<svg xmlns="http://www.w3.org/2000/svg" width="24" height="24"><path fill="#fff" d="M22 11.5c0-1.4-1.1-2.5-2.5-2.5-.6 0-1.2.2-1.6.6-1.5-.9-3.3-1.5-5.4-1.6l1.1-4L17 5a2 2 0 0 0 2 2 2 2 0 0 0 2-2 2 2 0 0 0-2-2 2 2 0 0 0-1.7 1l-4-1c-.3-.1-.5.1-.6.4L11.5 8c-2 .1-3.9.7-5.4 1.6-.4-.4-1-.6-1.6-.6A2.5 2.5 0 0 0 2 11.5c0 .9.4 1.6 1.1 2.1l-.1.9c0 3.6 4 6.5 9 6.5s9-2.9 9-6.5l-.1-.9c.7-.5 1.1-1.2 1.1-2.1m-13 .3c.7 0 1.2.6 1.2 1.2s-.5 1.2-1.2 1.2-1.2-.5-1.2-1.2.5-1.2 1.2-1.2m6.8 5.4a9.2 9.2 0 0 1-7.6 0c-.2-.2-.3-.5-.1-.7.2-.2.5-.3.7-.1 1.2.9 5.2.9 6.4 0 .2-.2.5-.1.7.1.2.2.1.5-.1.7m-.8-3c-.7 0-1.2-.6-1.2-1.2 0-.7.6-1.2 1.2-1.2.7 0 1.2.6 1.2 1.2 0 .7-.5 1.2-1.2 1.2z"/></svg>
